<svg width="21" height="20" viewBox="0 0 21 20" fill="none" xmlns="http://www.w3.org/2000/svg">
<path d="M9.75684 9V5H11.7568V9H15.7568V11H11.7568V15H9.75684V11H5.75684V9H9.75684ZM10.7568 20C5.23384 20 0.756836 15.523 0.756836 10C0.756836 4.477 5.23384 0 10.7568 0C16.2798 0 20.7568 4.477 20.7568 10C20.7568 15.523 16.2798 20 10.7568 20ZM10.7568 18C12.8786 18 14.9134 17.1571 16.4137 15.6569C17.914 14.1566 18.7568 12.1217 18.7568 10C18.7568 7.87827 17.914 5.84344 16.4137 4.34315C14.9134 2.84285 12.8786 2 10.7568 2C8.6351 2 6.60027 2.84285 5.09998 4.34315C3.59969 5.84344 2.75684 7.87827 2.75684 10C2.75684 12.1217 3.59969 14.1566 5.09998 15.6569C6.60027 17.1571 8.6351 18 10.7568 18Z" fill="#959595"/>
</svg>
