<svg width="25" height="23" viewBox="0 0 25 23" fill="none" xmlns="http://www.w3.org/2000/svg">
<path d="M1.25 0.5H23.75C24.0815 0.5 24.3995 0.631696 24.6339 0.866116C24.8683 1.10054 25 1.41848 25 1.75V21.75C25 22.0815 24.8683 22.3995 24.6339 22.6339C24.3995 22.8683 24.0815 23 23.75 23H1.25C0.91848 23 0.600537 22.8683 0.366117 22.6339C0.131696 22.3995 0 22.0815 0 21.75V1.75C0 1.41848 0.131696 1.10054 0.366117 0.866116C0.600537 0.631696 0.91848 0.5 1.25 0.5ZM2.5 3V20.5H22.5V3H2.5ZM6.25 13H8.75V18H6.25V13ZM11.25 5.5H13.75V18H11.25V5.5ZM16.25 9.25H18.75V18H16.25V9.25Z" fill="#959595"/>
</svg>
