<svg width="25" height="27" viewBox="0 0 25 27" fill="none" xmlns="http://www.w3.org/2000/svg">
<path d="M7.5 23.541V25.956C7.50019 26.0749 7.46649 26.1913 7.40283 26.2917C7.33918 26.3921 7.24822 26.4723 7.14063 26.5228C7.03303 26.5733 6.91326 26.5921 6.79536 26.5769C6.67747 26.5618 6.56633 26.5133 6.475 26.4373L1.325 22.146C1.22622 22.0636 1.15526 21.9528 1.1218 21.8286C1.08834 21.7044 1.094 21.573 1.13802 21.4521C1.18204 21.3313 1.26227 21.2269 1.36777 21.1534C1.47326 21.0798 1.59889 21.0406 1.7275 21.041H20C20.663 21.041 21.2989 20.7776 21.7678 20.3088C22.2366 19.8399 22.5 19.2041 22.5 18.541V8.54102H25V18.541C25 19.8671 24.4732 21.1389 23.5355 22.0765C22.5979 23.0142 21.3261 23.541 20 23.541H7.5ZM17.5 3.54102V1.12602C17.4998 1.00715 17.5335 0.890696 17.5972 0.79031C17.6608 0.689925 17.7518 0.609772 17.8594 0.559254C17.967 0.508737 18.0867 0.489949 18.2046 0.505095C18.3225 0.520241 18.4337 0.568693 18.525 0.644767L23.675 4.93602C23.7737 5.01832 23.8446 5.12904 23.8781 5.25311C23.9116 5.37717 23.9061 5.50855 23.8622 5.62934C23.8183 5.75013 23.7383 5.85447 23.633 5.92813C23.5277 6.0018 23.4023 6.04122 23.2738 6.04102H5C4.33696 6.04102 3.70107 6.30441 3.23223 6.77325C2.76339 7.24209 2.5 7.87798 2.5 8.54102V18.541H0V8.54102C0 7.21493 0.526784 5.94316 1.46447 5.00548C2.40215 4.0678 3.67392 3.54102 5 3.54102H17.5Z" fill="#959595"/>
</svg>
