<svg width="21" height="20" viewBox="0 0 21 20" fill="none" xmlns="http://www.w3.org/2000/svg">
<path d="M15.6035 4H20.6035V6H18.6035V19C18.6035 19.2652 18.4982 19.5196 18.3106 19.7071C18.1231 19.8946 17.8687 20 17.6035 20H3.60352C3.3383 20 3.08395 19.8946 2.89641 19.7071C2.70887 19.5196 2.60352 19.2652 2.60352 19V6H0.603516V4H5.60352V1C5.60352 0.734784 5.70887 0.48043 5.89641 0.292893C6.08395 0.105357 6.3383 0 6.60352 0H14.6035C14.8687 0 15.1231 0.105357 15.3106 0.292893C15.4982 0.48043 15.6035 0.734784 15.6035 1V4ZM16.6035 6H4.60352V18H16.6035V6ZM12.0175 12L13.7855 13.768L12.3715 15.182L10.6035 13.414L8.83552 15.182L7.42152 13.768L9.18952 12L7.42152 10.232L8.83552 8.818L10.6035 10.586L12.3715 8.818L13.7855 10.232L12.0175 12ZM7.60352 2V4H13.6035V2H7.60352Z" fill="#959595"/>
</svg>
