<svg width="25" height="25" viewBox="0 0 25 25" fill="none" xmlns="http://www.w3.org/2000/svg">
<path d="M24 13.125C24 19.0834 18.9002 24 12.5 24C6.09977 24 1 19.0834 1 13.125C1 7.16662 6.09977 2.25 12.5 2.25C18.9002 2.25 24 7.16662 24 13.125Z" fill="white" stroke="#959595" stroke-width="2"/>
<path d="M11.6475 15.6494C11.6475 14.9053 11.8789 14.2197 12.3418 13.5928C12.541 13.3232 12.7549 13.0654 12.9834 12.8193C13.874 11.8584 14.3193 10.7979 14.3193 9.6377C14.3193 8.70605 13.9326 8.11133 13.1592 7.85352C12.9307 7.77734 12.6992 7.73926 12.4648 7.73926C11.9844 7.73926 11.5449 7.83594 11.1465 8.0293C10.748 8.22266 10.4697 8.50977 10.3115 8.89062C10.5986 8.97266 10.8271 9.13086 10.9971 9.36523C11.1729 9.59961 11.2607 9.89844 11.2607 10.2617C11.2607 10.6191 11.1465 10.9268 10.918 11.1846C10.6953 11.4424 10.3584 11.5713 9.90723 11.5713C9.27441 11.5713 8.83496 11.2812 8.58887 10.7012C8.49512 10.4902 8.44824 10.2207 8.44824 9.89258C8.44824 9.55859 8.53027 9.19824 8.69434 8.81152C8.86426 8.41895 9.12793 8.05859 9.48535 7.73047C10.2881 7.00391 11.2695 6.64062 12.4297 6.64062C13.5898 6.64062 14.5332 6.95703 15.2598 7.58984C15.9863 8.22266 16.3496 9.05176 16.3496 10.0771C16.3496 11.1025 15.7637 12.1631 14.5918 13.2588C13.8594 13.9443 13.3672 14.4893 13.1152 14.8936C12.8633 15.292 12.7227 15.6758 12.6934 16.0449H11.6475V15.6494ZM10.9268 18.8223C10.9268 18.4473 11.0586 18.1279 11.3223 17.8643C11.5859 17.6006 11.9053 17.4688 12.2803 17.4688C12.6553 17.4688 12.9746 17.6006 13.2383 17.8643C13.502 18.1279 13.6338 18.4473 13.6338 18.8223C13.6338 19.1973 13.502 19.5166 13.2383 19.7803C12.9746 20.0439 12.6553 20.1758 12.2803 20.1758C11.9053 20.1758 11.5859 20.0439 11.3223 19.7803C11.0586 19.5166 10.9268 19.1973 10.9268 18.8223Z" fill="#959595"/>
</svg>
