<svg width="26" height="27" viewBox="0 0 26 27" fill="none" xmlns="http://www.w3.org/2000/svg">
<path d="M25.25 16.875H22V12.4219C22 12.293 21.8875 12.1875 21.75 12.1875H14V9.375H17.375C17.65 9.375 17.875 9.16406 17.875 8.90625V0.46875C17.875 0.210938 17.65 0 17.375 0H8.375C8.1 0 7.875 0.210938 7.875 0.46875V8.90625C7.875 9.16406 8.1 9.375 8.375 9.375H11.75V12.1875H4C3.8625 12.1875 3.75 12.293 3.75 12.4219V16.875H0.5C0.225 16.875 0 17.0859 0 17.3438V25.7812C0 26.0391 0.225 26.25 0.5 26.25H9.5C9.775 26.25 10 26.0391 10 25.7812V17.3438C10 17.0859 9.775 16.875 9.5 16.875H6V14.2969H19.75V16.875H16.25C15.975 16.875 15.75 17.0859 15.75 17.3438V25.7812C15.75 26.0391 15.975 26.25 16.25 26.25H25.25C25.525 26.25 25.75 26.0391 25.75 25.7812V17.3438C25.75 17.0859 25.525 16.875 25.25 16.875ZM7.625 19.1016V24.0234H2.375V19.1016H7.625ZM10.25 7.14844V2.22656H15.5V7.14844H10.25ZM23.375 24.0234H18.125V19.1016H23.375V24.0234Z" fill="#959595"/>
</svg>
