<svg width="24" height="25" viewBox="0 0 24 25" fill="none" xmlns="http://www.w3.org/2000/svg">
<path d="M9.5 0C10.19 0 10.75 0.56 10.75 1.25V6.25C10.75 6.94 10.19 7.5 9.5 7.5H7V10H13.25V8.75C13.25 8.06 13.81 7.5 14.5 7.5H22C22.69 7.5 23.25 8.06 23.25 8.75V13.75C23.25 14.44 22.69 15 22 15H14.5C13.81 15 13.25 14.44 13.25 13.75V12.5H7V20H13.25V18.75C13.25 18.06 13.81 17.5 14.5 17.5H22C22.69 17.5 23.25 18.06 23.25 18.75V23.75C23.25 24.44 22.69 25 22 25H14.5C13.81 25 13.25 24.44 13.25 23.75V22.5H5.75C5.06 22.5 4.5 21.94 4.5 21.25V7.5H2C1.31 7.5 0.75 6.94 0.75 6.25V1.25C0.75 0.56 1.31 0 2 0H9.5ZM20.75 20H15.75V22.5H20.75V20ZM20.75 10H15.75V12.5H20.75V10ZM8.25 2.5H3.25V5H8.25V2.5Z" fill="#959595"/>
</svg>
