<svg width="24" height="25" viewBox="0 0 24 25" fill="none" xmlns="http://www.w3.org/2000/svg">
<path d="M23.25 7.5V23.7413C23.2512 23.9054 23.22 24.0682 23.1582 24.2203C23.0965 24.3724 23.0053 24.5108 22.8901 24.6277C22.7748 24.7446 22.6377 24.8376 22.4864 24.9015C22.3352 24.9654 22.1729 24.9989 22.0088 25H1.99125C1.66227 25 1.34674 24.8694 1.114 24.6369C0.881252 24.4044 0.750331 24.089 0.75 23.76V1.24C0.75 0.56875 1.31125 0 2.0025 0H15.7463L23.25 7.5ZM20.75 8.75H14.5V2.5H3.25V22.5H20.75V8.75Z" fill="#959595"/>
</svg>
