<svg width="24" height="25" viewBox="0 0 24 25" fill="none" xmlns="http://www.w3.org/2000/svg">
<path d="M7 0V2.5H3.25L3.24875 15H20.7488L20.75 2.5H17V0H22C22.3315 0 22.6495 0.131696 22.8839 0.366117C23.1183 0.600537 23.25 0.91848 23.25 1.25V23.75C23.25 24.0815 23.1183 24.3995 22.8839 24.6339C22.6495 24.8683 22.3315 25 22 25H2C1.66848 25 1.35054 24.8683 1.11612 24.6339C0.881696 24.3995 0.75 24.0815 0.75 23.75V1.25C0.75 0.91848 0.881696 0.600537 1.11612 0.366117C1.35054 0.131696 1.66848 0 2 0H7ZM20.7488 17.5H3.24875L3.25 22.5H20.75L20.7488 17.5ZM18.25 18.75V21.25H15.75V18.75H18.25ZM12 0L17 5H13.25V11.25H10.75V5H7L12 0Z" fill="#959595"/>
</svg>
