<svg width="24" height="23" viewBox="0 0 24 23" fill="none" xmlns="http://www.w3.org/2000/svg">
<path d="M5.75 20.25V12.75H18.25V20.25H20.75V6.285L17.215 2.75H3.25V20.25H5.75ZM2 0.25H18.25L23.25 5.25V21.5C23.25 21.8315 23.1183 22.1495 22.8839 22.3839C22.6495 22.6183 22.3315 22.75 22 22.75H2C1.66848 22.75 1.35054 22.6183 1.11612 22.3839C0.881696 22.1495 0.75 21.8315 0.75 21.5V1.5C0.75 1.16848 0.881696 0.850537 1.11612 0.616116C1.35054 0.381696 1.66848 0.25 2 0.25ZM8.25 15.25V20.25H15.75V15.25H8.25Z" fill="#959595"/>
</svg>
